HIERARCHY
ROOT root
{
	OFFSET 0.000000 0.000000 0.000000
	CHANNELS 6 Xposition Yposition Zposition Zrotation Yrotation Xrotation
	JOINT lhip
	{
		OFFSET 0.058581 -0.082280 -0.017664
		CHANNELS 3 Zrotation Yrotation Xrotation
		JOINT lknee
		{
			OFFSET 0.043451 -0.386469 0.008037
			CHANNELS 3 Zrotation Yrotation Xrotation
			JOINT lankle
			{
				OFFSET -0.014790 -0.426874 -0.037428
				CHANNELS 3 Zrotation Yrotation Xrotation
				JOINT ltoe
				{
					OFFSET 0.041054 -0.060286 0.122042
					CHANNELS 3 Zrotation Yrotation Xrotation
					End Site
					{
						OFFSET 0.000000 0.000000 0.000000
					}
				}
			}
		}
	}
	JOINT rhip
	{
		OFFSET -0.060310 -0.090513 -0.013543
		CHANNELS 3 Zrotation Yrotation Xrotation
		JOINT rknee
		{
			OFFSET -0.043257 -0.383688 -0.004843
			CHANNELS 3 Zrotation Yrotation Xrotation
			JOINT rankle
			{
				OFFSET 0.019056 -0.420046 -0.034562
				CHANNELS 3 Zrotation Yrotation Xrotation
				JOINT rtoe
				{
					OFFSET -0.034840 -0.062106 0.130323
					CHANNELS 3 Zrotation Yrotation Xrotation
					End Site
					{
						OFFSET 0.000000 0.000000 0.000000
					}
				}
			}
		}
	}
	JOINT lowerback
	{
		OFFSET 0.004439 0.124404 -0.038385
		CHANNELS 3 Zrotation Yrotation Xrotation
		JOINT upperback
		{
			OFFSET 0.004488 0.137956 0.026820
			CHANNELS 3 Zrotation Yrotation Xrotation
			JOINT chest
			{
				OFFSET -0.002265 0.056032 0.002855
				CHANNELS 3 Zrotation Yrotation Xrotation
				JOINT lowerneck
				{
					OFFSET -0.013390 0.211636 -0.033468
					CHANNELS 3 Zrotation Yrotation Xrotation
					JOINT upperneck
					{
						OFFSET 0.010113 0.088937 0.050410
						CHANNELS 3 Zrotation Yrotation Xrotation
						End Site
						{
							OFFSET 0.000000 0.000000 0.000000
						}
					}
				}
				JOINT lclavicle
				{
					OFFSET 0.071702 0.114000 -0.018898
					CHANNELS 3 Zrotation Yrotation Xrotation
					JOINT lshoulder
					{
						OFFSET 0.122921 0.045205 -0.019046
						CHANNELS 3 Zrotation Yrotation Xrotation
						JOINT lelbow
						{
							OFFSET 0.255332 -0.015649 -0.022946
							CHANNELS 3 Zrotation Yrotation Xrotation
							JOINT lwrist
							{
								OFFSET 0.265709 0.012698 -0.007375
								CHANNELS 3 Zrotation Yrotation Xrotation
								End Site
								{
									OFFSET 0.000000 0.000000 0.000000
								}
							}
						}
					}
				}
				JOINT rclavicle
				{
					OFFSET -0.082954 0.112472 -0.023707
					CHANNELS 3 Zrotation Yrotation Xrotation
					JOINT rshoulder
					{
						OFFSET -0.113228 0.046853 -0.008472
						CHANNELS 3 Zrotation Yrotation Xrotation
						JOINT relbow
						{
							OFFSET -0.260127 -0.014369 -0.031269
							CHANNELS 3 Zrotation Yrotation Xrotation
							JOINT rwrist
							{
								OFFSET -0.269108 0.006794 -0.006027
								CHANNELS 3 Zrotation Yrotation Xrotation
								End Site
								{
									OFFSET 0.000000 0.000000 0.000000
								}
							}
						}
					}
				}
			}
		}
	}
}
MOTION
Frames: 16
Frame Time: 0.033333
0.125322 1.263791 1.006192 -4.351185 -0.360057 89.572796 1.707504 7.882830 -0.379612 -3.330270 7.357640 8.489263 -2.594407 13.851854 -18.021121 0.000000 -0.000000 0.000000 -1.612333 -1.690083 -1.557376 -2.312600 0.681414 8.525331 4.762029 -8.589830 -13.249701 0.000000 -0.000000 0.000000 -0.675911 -1.786165 9.155804 1.441777 -4.983308 1.126659 -0.641994 -4.027735 5.236137 1.494328 -5.429882 -4.690132 -0.930539 -6.137023 1.974956 -21.613500 19.324880 2.148474 -47.871973 3.953912 -4.325306 14.782301 -27.907113 -13.596616 -7.825912 -9.762027 -22.293098 21.329325 -16.195487 -6.076614 47.695640 -2.780953 2.236117 -44.046238 43.160351 -45.904345 12.673639 11.579970 -34.268576 
0.125102 1.267315 1.002836 -7.998169 -0.334663 89.553028 2.213005 7.728004 -1.873197 -3.587584 10.573685 12.327033 -2.051234 14.364978 -18.843640 0.000000 -0.000000 0.000000 -1.899469 -1.041602 -1.625655 -2.371594 3.160087 7.614413 4.232976 -7.062107 -13.765939 0.000000 -0.000000 0.000000 -0.891200 -1.222637 9.525936 1.360697 -4.974714 1.124322 -0.753784 -3.822330 5.094282 1.415372 -5.124290 -4.832362 -0.651326 -5.576450 2.080875 -21.924460 18.416508 2.324163 -49.452542 3.648516 -3.291614 13.826329 -27.865274 -11.330933 -6.870651 -8.853308 -21.204200 21.310254 -15.192897 -5.328878 49.140453 -2.000883 2.900576 -42.756589 43.409668 -43.870155 11.761695 11.055442 -34.438224 
0.126425 1.269698 1.000373 -11.162735 0.143011 88.560746 3.698257 7.782563 -3.165627 -3.983742 11.591258 18.322600 -2.574942 14.185602 -19.005493 0.000000 -0.000000 0.000000 -2.480862 -0.624293 -1.450559 -1.096216 4.618813 8.366163 4.322600 -4.957992 -14.028303 0.000000 -0.000000 0.000000 -0.619703 -1.127490 11.066445 1.384676 -4.915789 1.449410 -0.870474 -3.520106 4.603972 1.640820 -4.477890 -5.358387 -0.749825 -5.267419 1.829547 -23.159187 17.315539 1.949244 -50.189966 3.470978 -2.375270 13.935621 -29.666489 -8.953295 -4.398407 -7.811095 -17.942116 21.833028 -13.944791 -4.963434 49.455192 -1.246667 3.481698 -41.408379 44.754488 -42.060259 9.172541 10.168300 -33.968238 
0.128896 1.271548 0.999286 -14.482075 0.412826 87.399323 5.573710 7.140907 -3.979382 -5.558678 10.265482 24.671295 -4.081674 12.152958 -19.472111 0.000000 -0.000000 0.000000 -2.803678 -0.051200 -1.628535 -0.302904 6.055102 9.813493 4.477792 -3.386287 -14.688978 0.000000 -0.000000 0.000000 -0.878871 -0.611184 12.243723 1.427767 -4.362600 1.891678 -0.958545 -3.353954 4.499295 2.054972 -3.745513 -5.579808 -0.469331 -5.346155 1.708093 -23.619014 15.952521 1.617445 -50.969309 2.720427 -0.800667 13.949988 -32.489083 -6.667219 -1.181721 -7.048803 -17.065828 22.423448 -12.782557 -4.907915 49.460076 -0.580864 4.190534 -38.575629 45.867225 -38.751120 6.626683 8.721618 -33.657821 
0.133610 1.272961 0.999666 -17.531303 0.340934 86.658730 7.034219 5.553141 -4.669348 -8.270825 5.965843 29.907479 -5.087178 8.897285 -19.651378 0.000000 -0.000000 0.000000 -3.344208 0.556690 -1.950634 -0.020004 7.394351 10.617167 4.601109 -2.311576 -14.611595 0.000000 -0.000000 0.000000 -1.589392 -0.082068 12.707609 1.431531 -4.187426 2.488808 -0.895763 -3.306971 4.084160 2.655178 -3.232625 -4.967163 -0.181836 -5.501855 1.435402 -24.042406 14.947852 1.388284 -51.371942 2.050457 0.858660 14.136751 -36.447008 -4.324824 1.447604 -6.691175 -16.581209 22.444107 -11.250715 -4.330342 49.999530 0.086824 5.245659 -35.599978 46.191127 -34.868518 3.688641 6.884345 -32.884572 
0.141142 1.273865 0.999764 -20.363933 0.016397 86.251280 7.782426 4.055555 -5.128559 -9.291170 2.311692 33.695810 -3.733593 8.647559 -20.783520 0.000000 -0.000000 0.000000 -3.794019 0.916648 -2.664175 -0.439444 9.134395 11.513461 5.043734 -1.673829 -14.950735 0.000000 -0.000000 0.000000 -2.115656 0.052121 12.560329 1.059130 -3.861276 2.830123 -1.327575 -3.141069 3.978738 3.143356 -2.590425 -4.802083 0.180763 -5.804569 2.390558 -23.619006 14.097442 1.576448 -51.112734 1.199737 2.828008 13.645533 -41.503065 -2.344675 3.919316 -6.456085 -16.683266 22.638396 -9.879737 -4.076443 50.430781 0.487961 6.608822 -32.274225 46.781576 -31.626641 1.377773 6.142792 -32.435203 
0.150208 1.273234 0.999245 -23.253928 0.089618 85.878589 9.181488 3.285850 -4.622589 -7.318641 1.299582 35.037135 -2.547913 10.363023 -19.955908 0.000000 -0.000000 0.000000 -4.232350 1.607115 -2.916135 -0.346677 10.565032 11.499028 5.446188 -0.750448 -14.689895 0.000000 -0.000000 0.000000 -2.175105 0.084388 12.471936 0.727380 -3.262354 2.751410 -1.509795 -3.246540 3.715621 3.067107 -2.273727 -3.999288 0.357960 -5.455849 2.586408 -23.547507 13.328831 1.950212 -50.508457 0.126547 4.171454 13.895950 -46.142691 -0.089313 4.496907 -7.160098 -16.253429 22.388823 -8.768826 -3.565132 50.517700 0.795613 7.934633 -28.413498 47.530249 -26.870639 -0.695820 5.338119 -31.102008 
0.161626 1.270216 0.997164 -26.103515 0.094237 85.800615 10.477062 2.401528 -3.300885 -5.124177 0.286457 33.569472 -1.236686 13.289795 -19.643116 0.000000 -0.000000 0.000000 -4.990352 2.136393 -3.537999 -0.197817 11.920485 11.606348 6.238064 0.088699 -15.009184 0.000000 -0.000000 0.000000 -2.339716 -0.202832 11.382286 0.470813 -2.888400 3.446944 -1.661425 -3.094703 3.544963 2.956652 -1.771292 -4.234526 0.181973 -4.988046 3.172699 -23.384169 12.661987 2.141507 -49.869067 -0.885364 5.349629 14.806950 -50.849994 0.493706 5.030350 -7.284037 -15.347052 22.460276 -7.487667 -2.800432 49.976904 1.237854 9.055746 -25.711620 48.603620 -23.123657 -0.793521 5.421013 -28.715319 
0.173639 1.266759 0.994544 -29.063509 0.604097 85.596251 12.436402 1.300340 -0.833345 -4.653025 -2.427412 29.838810 -1.526281 13.984483 -20.446908 0.000000 -0.000000 0.000000 -5.519196 2.535898 -4.237886 0.412731 12.918559 11.800333 7.173117 1.445969 -14.792493 0.000000 -0.000000 0.000000 -2.316159 -0.278221 10.341972 0.523263 -2.411166 4.085960 -1.552688 -3.001874 3.163119 3.075731 -0.702462 -3.950622 -0.117527 -4.762645 3.662125 -23.405182 11.770141 2.301559 -48.980016 -1.992676 6.405623 16.115159 -54.697396 0.224370 4.211923 -7.870950 -14.799798 22.646063 -6.438817 -2.285006 49.244975 1.611657 9.903842 -23.207467 49.292916 -18.962710 0.183736 6.342824 -28.015867 
0.190805 1.262423 0.991495 -31.223786 0.616527 85.684514 12.995116 -0.230694 1.189966 -4.679690 -7.479550 25.653329 -1.804239 12.924421 -20.424412 0.000000 -0.000000 0.000000 -6.826843 2.845670 -5.467667 1.014258 13.871901 12.338815 7.960124 2.314988 -14.479417 0.000000 -0.000000 0.000000 -2.529258 -0.719195 9.584767 0.562863 -2.291396 4.118739 -1.464777 -3.142909 2.707605 2.907130 0.353177 -3.525354 -0.421769 -4.650990 4.438794 -23.026085 11.153585 2.548589 -48.488503 -3.012554 7.630054 17.843163 -58.767325 -1.441306 5.846537 -7.730500 -16.123212 22.804027 -5.794375 -1.817323 49.429127 1.698352 10.888572 -22.727192 50.507015 -18.751542 -0.618430 5.947411 -26.295032 
0.210586 1.257621 0.987301 -32.825146 0.863430 85.839227 13.163204 -1.773566 2.763554 -4.009484 -13.065514 21.568926 -3.812254 10.799109 -19.322412 0.000000 -0.000000 0.000000 -7.893475 3.203683 -6.773093 1.218864 14.114972 12.820626 8.930760 3.074176 -13.567460 0.000000 -0.000000 0.000000 -2.484588 -1.272538 9.022428 0.831306 -2.450905 4.399701 -1.381939 -3.446360 2.191504 3.136425 1.438889 -3.419133 -0.772409 -4.730281 4.864822 -22.999570 10.798483 2.958355 -47.363863 -3.942090 8.614770 21.709727 -64.725019 -4.608756 2.626470 -8.197408 -18.102564 23.426901 -5.756199 -1.447774 48.836221 1.440882 11.886126 -23.997891 54.446287 -18.947240 1.195430 6.310175 -27.258678 
0.232631 1.250617 0.982782 -34.301551 1.082602 85.226488 12.917388 -2.774994 4.555012 -4.366529 -18.013129 20.154416 -5.535843 7.878024 -21.280741 0.000000 -0.000000 0.000000 -8.600171 3.766357 -7.008427 0.536339 14.755317 12.866720 10.041280 3.689193 -12.913369 0.000000 -0.000000 0.000000 -2.428960 -1.684438 9.187728 1.254231 -2.591334 4.873242 -1.236978 -3.729471 2.044845 3.153717 2.402167 -3.652805 -1.240736 -4.691075 5.193411 -22.784706 10.156983 3.087282 -46.504019 -5.197147 9.521307 27.595613 -71.265424 -8.966509 0.754490 -10.023096 -20.022719 23.641644 -5.863156 -1.514044 48.599350 0.738768 12.726444 -28.583525 60.068540 -21.303956 4.036575 8.233714 -27.803616 
0.257583 1.243350 0.978066 -35.710449 0.952371 84.487029 12.065747 -3.282986 6.220245 -5.162459 -18.535812 18.976184 -5.101391 6.923621 -23.844517 0.000000 -0.000000 0.000000 -9.737689 3.952628 -7.336414 -0.105536 14.999860 12.917553 11.165720 3.935855 -11.849904 0.000000 -0.000000 0.000000 -2.452769 -1.691583 9.914648 1.628961 -3.008024 5.123410 -1.152327 -4.053456 2.296353 3.062501 3.284512 -4.685344 -1.626236 -4.788717 5.561163 -22.241662 9.561617 2.840651 -45.654352 -6.907943 10.275867 41.844472 -78.631499 -22.843404 -1.903057 -11.629359 -23.206521 23.908123 -6.740299 -2.398460 48.671307 0.179400 13.968568 -39.077734 67.279009 -29.895829 8.223317 10.281521 -28.445966 
0.285442 1.236751 0.975524 -36.688597 0.618276 83.819147 10.499253 -2.341500 7.322676 -5.171540 -16.750711 17.167695 -3.139084 6.597640 -25.544991 0.000000 -0.000000 0.000000 -10.935948 3.425762 -7.449260 -1.382659 13.946887 11.889683 12.695510 4.019230 -9.075028 0.000000 -0.000000 0.000000 -2.525297 -2.155463 11.596911 1.712690 -3.393375 4.610638 -0.960419 -4.151525 2.297173 2.787575 3.423149 -5.204839 -1.423510 -3.985726 5.628589 -21.650853 8.980307 2.732680 -43.603346 -8.669714 10.732027 102.530848 -83.837100 -85.227704 -6.192795 -15.598284 -29.785867 23.820814 -7.564272 -3.519102 48.670347 -1.022260 15.898932 -63.350676 75.161222 -53.393056 13.061405 13.473579 -30.044290 
0.314845 1.233575 0.977419 -37.938108 0.517985 83.581682 8.952187 -2.036585 5.625470 -5.682507 -15.652159 19.171507 -2.294529 5.280481 -25.225651 0.000000 -0.000000 0.000000 -11.596265 3.058519 -7.881804 -2.580444 11.849438 10.032265 13.976210 3.737560 -4.920070 0.000000 -0.000000 0.000000 -2.389825 -2.298094 13.147408 1.844360 -3.942430 4.269236 -0.778833 -4.490217 2.150790 2.212023 3.721478 -5.927029 -1.016896 -3.224231 6.058534 -20.947187 7.378039 2.758128 -42.459513 -10.100604 11.503240 149.083580 -77.175463 -133.206521 -9.171253 -19.054139 -35.267623 23.565806 -7.312124 -3.744144 49.095892 -1.046624 17.689426 -107.909641 76.912793 -96.491441 18.447380 16.765047 -31.551943 
0.343742 1.232040 0.982305 -40.505499 0.146509 84.260126 7.213453 -3.262223 3.601763 -6.647132 -12.527876 20.295742 -1.096174 5.477103 -24.234166 0.000000 -0.000000 0.000000 -12.447415 2.437948 -10.198410 -2.367248 8.861802 9.596398 14.642774 2.829645 -0.231409 0.000000 -0.000000 0.000000 -2.422567 -1.723676 13.041351 2.040194 -3.990469 4.245857 -0.784910 -4.583893 2.224640 1.863115 3.651566 -5.699513 -1.316202 -2.667752 6.196179 -19.922572 6.495457 2.103729 -41.225964 -12.706652 12.340839 160.819921 -70.705409 -146.040654 -13.343721 -24.077702 -39.069874 23.201786 -7.118432 -4.433576 48.762452 0.277579 20.204710 -141.030611 72.796788 -128.488541 25.060676 21.905053 -33.076352 
